solid OpenSCAD_Model
  facet normal 1 0 0
    outer loop
      vertex 227.7 15 3
      vertex 227.7 0 3
      vertex 227.7 15 1
    endloop
  endfacet
  facet normal 1 -0 0
    outer loop
      vertex 227.7 15 1
      vertex 227.7 60 0
      vertex 227.7 60 1
    endloop
  endfacet
  facet normal 1 0 0
    outer loop
      vertex 227.7 15 1
      vertex 227.7 0 0
      vertex 227.7 60 0
    endloop
  endfacet
  facet normal 1 0 0
    outer loop
      vertex 227.7 0 0
      vertex 227.7 15 1
      vertex 227.7 0 3
    endloop
  endfacet
  facet normal 0 0 1
    outer loop
      vertex 1 15 3
      vertex 0 15 3
      vertex 1 1 3
    endloop
  endfacet
  facet normal -0 0 1
    outer loop
      vertex 1 1 3
      vertex 15 0 3
      vertex 15 1 3
    endloop
  endfacet
  facet normal 0 0 1
    outer loop
      vertex 1 1 3
      vertex 0 0 3
      vertex 15 0 3
    endloop
  endfacet
  facet normal 0 0 1
    outer loop
      vertex 0 0 3
      vertex 1 1 3
      vertex 0 15 3
    endloop
  endfacet
  facet normal 0 0 1
    outer loop
      vertex 226.7 1 3
      vertex 227.7 15 3
      vertex 226.7 15 3
    endloop
  endfacet
  facet normal 0 0 1
    outer loop
      vertex 227.7 15 3
      vertex 226.7 1 3
      vertex 227.7 0 3
    endloop
  endfacet
  facet normal 0 0 1
    outer loop
      vertex 212.7 0 3
      vertex 226.7 1 3
      vertex 212.7 1 3
    endloop
  endfacet
  facet normal 0 0 1
    outer loop
      vertex 226.7 1 3
      vertex 212.7 0 3
      vertex 227.7 0 3
    endloop
  endfacet
  facet normal 0 0 -1
    outer loop
      vertex 227.7 0 0
      vertex 206.55 31.5 0
      vertex 227.7 60 0
    endloop
  endfacet
  facet normal 0 0 -1
    outer loop
      vertex 227.7 0 0
      vertex 31.15 31.5 0
      vertex 206.55 31.5 0
    endloop
  endfacet
  facet normal 0 0 -1
    outer loop
      vertex 0 0 0
      vertex 31.15 31.5 0
      vertex 227.7 0 0
    endloop
  endfacet
  facet normal 0 0 -1
    outer loop
      vertex 0 60 0
      vertex 31.15 31.5 0
      vertex 0 0 0
    endloop
  endfacet
  facet normal 0 0 -1
    outer loop
      vertex 31.15 31.5 0
      vertex 0 60 0
      vertex 31.15 60 0
    endloop
  endfacet
  facet normal -0 0 -1
    outer loop
      vertex 227.7 60 0
      vertex 206.55 31.5 0
      vertex 206.55 60 0
    endloop
  endfacet
  facet normal -1 0 0
    outer loop
      vertex 0 60 0
      vertex 0 15 1
      vertex 0 60 1
    endloop
  endfacet
  facet normal -1 0 0
    outer loop
      vertex 0 0 0
      vertex 0 15 1
      vertex 0 60 0
    endloop
  endfacet
  facet normal -1 0 0
    outer loop
      vertex 0 0 3
      vertex 0 15 1
      vertex 0 0 0
    endloop
  endfacet
  facet normal -1 0 0
    outer loop
      vertex 0 15 1
      vertex 0 0 3
      vertex 0 15 3
    endloop
  endfacet
  facet normal 0 1 -0
    outer loop
      vertex 227.7 60 0
      vertex 206.55 60 1
      vertex 227.7 60 1
    endloop
  endfacet
  facet normal 0 1 0
    outer loop
      vertex 206.55 60 1
      vertex 227.7 60 0
      vertex 206.55 60 0
    endloop
  endfacet
  facet normal 0 1 -0
    outer loop
      vertex 31.15 60 0
      vertex 0 60 1
      vertex 31.15 60 1
    endloop
  endfacet
  facet normal 0 1 0
    outer loop
      vertex 0 60 1
      vertex 31.15 60 0
      vertex 0 60 0
    endloop
  endfacet
  facet normal 0 -1 0
    outer loop
      vertex 0 0 3
      vertex 15 0 1
      vertex 15 0 3
    endloop
  endfacet
  facet normal 0 -1 -0
    outer loop
      vertex 15 0 1
      vertex 0 0 0
      vertex 212.7 0 1
    endloop
  endfacet
  facet normal 0 -1 0
    outer loop
      vertex 0 0 0
      vertex 15 0 1
      vertex 0 0 3
    endloop
  endfacet
  facet normal 0 -1 0
    outer loop
      vertex 212.7 0 1
      vertex 227.7 0 3
      vertex 212.7 0 3
    endloop
  endfacet
  facet normal 0 -1 0
    outer loop
      vertex 212.7 0 1
      vertex 227.7 0 0
      vertex 227.7 0 3
    endloop
  endfacet
  facet normal 0 -1 0
    outer loop
      vertex 227.7 0 0
      vertex 212.7 0 1
      vertex 0 0 0
    endloop
  endfacet
  facet normal -1 0 0
    outer loop
      vertex 226.7 1 1
      vertex 226.7 15 3
      vertex 226.7 15 1
    endloop
  endfacet
  facet normal -1 -0 0
    outer loop
      vertex 226.7 15 3
      vertex 226.7 1 1
      vertex 226.7 1 3
    endloop
  endfacet
  facet normal -0 0 1
    outer loop
      vertex 0 60 1
      vertex 31.15 31.5 1
      vertex 31.15 60 1
    endloop
  endfacet
  facet normal 0 0 1
    outer loop
      vertex 31.15 31.5 1
      vertex 1 15 1
      vertex 15 1 1
    endloop
  endfacet
  facet normal 0 0 1
    outer loop
      vertex 31.15 31.5 1
      vertex 0 60 1
      vertex 1 15 1
    endloop
  endfacet
  facet normal 0 0 1
    outer loop
      vertex 1 15 1
      vertex 0 60 1
      vertex 0 15 1
    endloop
  endfacet
  facet normal -0 0 1
    outer loop
      vertex 206.55 31.5 1
      vertex 227.7 15 1
      vertex 227.7 60 1
    endloop
  endfacet
  facet normal 0 0 1
    outer loop
      vertex 226.7 15 1
      vertex 212.7 1 1
      vertex 226.7 1 1
    endloop
  endfacet
  facet normal 0 0 1
    outer loop
      vertex 227.7 15 1
      vertex 206.55 31.5 1
      vertex 226.7 15 1
    endloop
  endfacet
  facet normal 0 0 1
    outer loop
      vertex 206.55 31.5 1
      vertex 227.7 60 1
      vertex 206.55 60 1
    endloop
  endfacet
  facet normal 0 0 1
    outer loop
      vertex 226.7 15 1
      vertex 206.55 31.5 1
      vertex 212.7 1 1
    endloop
  endfacet
  facet normal 0 0 1
    outer loop
      vertex 212.7 1 1
      vertex 206.55 31.5 1
      vertex 212.7 0 1
    endloop
  endfacet
  facet normal -0 0 1
    outer loop
      vertex 31.15 31.5 1
      vertex 212.7 0 1
      vertex 206.55 31.5 1
    endloop
  endfacet
  facet normal 0 0 1
    outer loop
      vertex 15 0 1
      vertex 31.15 31.5 1
      vertex 15 1 1
    endloop
  endfacet
  facet normal 0 0 1
    outer loop
      vertex 31.15 31.5 1
      vertex 15 0 1
      vertex 212.7 0 1
    endloop
  endfacet
  facet normal 0 0 1
    outer loop
      vertex 15 1 1
      vertex 1 15 1
      vertex 1 1 1
    endloop
  endfacet
  facet normal 1 -0 0
    outer loop
      vertex 1 1 3
      vertex 1 15 1
      vertex 1 15 3
    endloop
  endfacet
  facet normal 1 0 0
    outer loop
      vertex 1 15 1
      vertex 1 1 3
      vertex 1 1 1
    endloop
  endfacet
  facet normal 0 1 -0
    outer loop
      vertex 226.7 1 1
      vertex 212.7 1 3
      vertex 226.7 1 3
    endloop
  endfacet
  facet normal 0 1 0
    outer loop
      vertex 212.7 1 3
      vertex 226.7 1 1
      vertex 212.7 1 1
    endloop
  endfacet
  facet normal 0 1 -0
    outer loop
      vertex 15 1 1
      vertex 1 1 3
      vertex 15 1 3
    endloop
  endfacet
  facet normal 0 1 0
    outer loop
      vertex 1 1 3
      vertex 15 1 1
      vertex 1 1 1
    endloop
  endfacet
  facet normal 0 1 -0
    outer loop
      vertex 1 15 1
      vertex 0 15 3
      vertex 1 15 3
    endloop
  endfacet
  facet normal 0 1 0
    outer loop
      vertex 0 15 3
      vertex 1 15 1
      vertex 0 15 1
    endloop
  endfacet
  facet normal 0 1 -0
    outer loop
      vertex 227.7 15 1
      vertex 226.7 15 3
      vertex 227.7 15 3
    endloop
  endfacet
  facet normal 0 1 0
    outer loop
      vertex 226.7 15 3
      vertex 227.7 15 1
      vertex 226.7 15 1
    endloop
  endfacet
  facet normal -1 0 0
    outer loop
      vertex 212.7 0 1
      vertex 212.7 1 3
      vertex 212.7 1 1
    endloop
  endfacet
  facet normal -1 -0 0
    outer loop
      vertex 212.7 1 3
      vertex 212.7 0 1
      vertex 212.7 0 3
    endloop
  endfacet
  facet normal 1 -0 0
    outer loop
      vertex 15 0 3
      vertex 15 1 1
      vertex 15 1 3
    endloop
  endfacet
  facet normal 1 0 0
    outer loop
      vertex 15 1 1
      vertex 15 0 3
      vertex 15 0 1
    endloop
  endfacet
  facet normal -1 0 0
    outer loop
      vertex 206.55 31.5 0
      vertex 206.55 60 1
      vertex 206.55 60 0
    endloop
  endfacet
  facet normal -1 -0 0
    outer loop
      vertex 206.55 60 1
      vertex 206.55 31.5 0
      vertex 206.55 31.5 1
    endloop
  endfacet
  facet normal 1 -0 0
    outer loop
      vertex 31.15 31.5 1
      vertex 31.15 60 0
      vertex 31.15 60 1
    endloop
  endfacet
  facet normal 1 0 0
    outer loop
      vertex 31.15 60 0
      vertex 31.15 31.5 1
      vertex 31.15 31.5 0
    endloop
  endfacet
  facet normal 0 1 -0
    outer loop
      vertex 206.55 31.5 0
      vertex 31.15 31.5 1
      vertex 206.55 31.5 1
    endloop
  endfacet
  facet normal 0 1 0
    outer loop
      vertex 31.15 31.5 1
      vertex 206.55 31.5 0
      vertex 31.15 31.5 0
    endloop
  endfacet
  facet normal 1 0 0
    outer loop
      vertex 227.7 -18 1
      vertex 227.7 -3 3
      vertex 227.7 -18 3
    endloop
  endfacet
  facet normal 1 0 0
    outer loop
      vertex 227.7 -3 3
      vertex 227.7 -18 1
      vertex 227.7 -3 0
    endloop
  endfacet
  facet normal 1 0 0
    outer loop
      vertex 227.7 -63 0
      vertex 227.7 -18 1
      vertex 227.7 -63 1
    endloop
  endfacet
  facet normal 1 0 0
    outer loop
      vertex 227.7 -18 1
      vertex 227.7 -63 0
      vertex 227.7 -3 0
    endloop
  endfacet
  facet normal 0 0 1
    outer loop
      vertex 15 -3 3
      vertex 1 -4 3
      vertex 15 -4 3
    endloop
  endfacet
  facet normal -0 0 1
    outer loop
      vertex 0 -3 3
      vertex 1 -4 3
      vertex 15 -3 3
    endloop
  endfacet
  facet normal 0 0 1
    outer loop
      vertex 0 -18 3
      vertex 1 -4 3
      vertex 0 -3 3
    endloop
  endfacet
  facet normal 0 0 1
    outer loop
      vertex 1 -4 3
      vertex 0 -18 3
      vertex 1 -18 3
    endloop
  endfacet
  facet normal 0 0 1
    outer loop
      vertex 227.7 -3 3
      vertex 226.7 -4 3
      vertex 227.7 -18 3
    endloop
  endfacet
  facet normal -0 0 1
    outer loop
      vertex 212.7 -3 3
      vertex 226.7 -4 3
      vertex 227.7 -3 3
    endloop
  endfacet
  facet normal 0 0 1
    outer loop
      vertex 226.7 -4 3
      vertex 212.7 -3 3
      vertex 212.7 -4 3
    endloop
  endfacet
  facet normal 0 0 1
    outer loop
      vertex 227.7 -18 3
      vertex 226.7 -4 3
      vertex 226.7 -18 3
    endloop
  endfacet
  facet normal 0 0 -1
    outer loop
      vertex 31.15 -63 0
      vertex 0 -63 0
      vertex 31.15 -34.5 0
    endloop
  endfacet
  facet normal 0 0 -1
    outer loop
      vertex 206.55 -34.5 0
      vertex 227.7 -63 0
      vertex 206.55 -63 0
    endloop
  endfacet
  facet normal 0 0 -1
    outer loop
      vertex 227.7 -63 0
      vertex 206.55 -34.5 0
      vertex 227.7 -3 0
    endloop
  endfacet
  facet normal 0 0 -1
    outer loop
      vertex 31.15 -34.5 0
      vertex 227.7 -3 0
      vertex 206.55 -34.5 0
    endloop
  endfacet
  facet normal 0 0 -1
    outer loop
      vertex 31.15 -34.5 0
      vertex 0 -3 0
      vertex 227.7 -3 0
    endloop
  endfacet
  facet normal 0 0 -1
    outer loop
      vertex 0 -3 0
      vertex 31.15 -34.5 0
      vertex 0 -63 0
    endloop
  endfacet
  facet normal -1 0 0
    outer loop
      vertex 0 -3 0
      vertex 0 -18 1
      vertex 0 -3 3
    endloop
  endfacet
  facet normal -1 0 0
    outer loop
      vertex 0 -63 0
      vertex 0 -18 1
      vertex 0 -3 0
    endloop
  endfacet
  facet normal -1 -0 0
    outer loop
      vertex 0 -18 1
      vertex 0 -63 0
      vertex 0 -63 1
    endloop
  endfacet
  facet normal -1 -0 0
    outer loop
      vertex 0 -3 3
      vertex 0 -18 1
      vertex 0 -18 3
    endloop
  endfacet
  facet normal 0 -1 0
    outer loop
      vertex 206.55 -63 0
      vertex 227.7 -63 1
      vertex 206.55 -63 1
    endloop
  endfacet
  facet normal 0 -1 -0
    outer loop
      vertex 227.7 -63 1
      vertex 206.55 -63 0
      vertex 227.7 -63 0
    endloop
  endfacet
  facet normal 0 -1 0
    outer loop
      vertex 0 -63 0
      vertex 31.15 -63 1
      vertex 0 -63 1
    endloop
  endfacet
  facet normal 0 -1 -0
    outer loop
      vertex 31.15 -63 1
      vertex 0 -63 0
      vertex 31.15 -63 0
    endloop
  endfacet
  facet normal 0 1 0
    outer loop
      vertex 227.7 -3 3
      vertex 212.7 -3 1
      vertex 212.7 -3 3
    endloop
  endfacet
  facet normal 0 1 0
    outer loop
      vertex 212.7 -3 1
      vertex 227.7 -3 0
      vertex 15 -3 1
    endloop
  endfacet
  facet normal 0 1 -0
    outer loop
      vertex 227.7 -3 0
      vertex 212.7 -3 1
      vertex 227.7 -3 3
    endloop
  endfacet
  facet normal 0 1 -0
    outer loop
      vertex 15 -3 1
      vertex 0 -3 3
      vertex 15 -3 3
    endloop
  endfacet
  facet normal 0 1 0
    outer loop
      vertex 15 -3 1
      vertex 0 -3 0
      vertex 0 -3 3
    endloop
  endfacet
  facet normal 0 1 0
    outer loop
      vertex 0 -3 0
      vertex 15 -3 1
      vertex 227.7 -3 0
    endloop
  endfacet
  facet normal -1 0 0
    outer loop
      vertex 226.7 -18 1
      vertex 226.7 -4 3
      vertex 226.7 -4 1
    endloop
  endfacet
  facet normal -1 -0 0
    outer loop
      vertex 226.7 -4 3
      vertex 226.7 -18 1
      vertex 226.7 -18 3
    endloop
  endfacet
  facet normal 0 0 1
    outer loop
      vertex 212.7 -3 1
      vertex 206.55 -34.5 1
      vertex 212.7 -4 1
    endloop
  endfacet
  facet normal 0 0 1
    outer loop
      vertex 212.7 -3 1
      vertex 31.15 -34.5 1
      vertex 206.55 -34.5 1
    endloop
  endfacet
  facet normal -0 0 1
    outer loop
      vertex 15 -3 1
      vertex 31.15 -34.5 1
      vertex 212.7 -3 1
    endloop
  endfacet
  facet normal -0 0 1
    outer loop
      vertex 15 -4 1
      vertex 31.15 -34.5 1
      vertex 15 -3 1
    endloop
  endfacet
  facet normal -0 0 1
    outer loop
      vertex 1 -18 1
      vertex 31.15 -34.5 1
      vertex 15 -4 1
    endloop
  endfacet
  facet normal 0 0 1
    outer loop
      vertex 1 -18 1
      vertex 15 -4 1
      vertex 1 -4 1
    endloop
  endfacet
  facet normal 0 0 1
    outer loop
      vertex 0 -63 1
      vertex 31.15 -34.5 1
      vertex 1 -18 1
    endloop
  endfacet
  facet normal 0 0 1
    outer loop
      vertex 0 -63 1
      vertex 1 -18 1
      vertex 0 -18 1
    endloop
  endfacet
  facet normal 0 0 1
    outer loop
      vertex 31.15 -34.5 1
      vertex 0 -63 1
      vertex 31.15 -63 1
    endloop
  endfacet
  facet normal 0 0 1
    outer loop
      vertex 226.7 -4 1
      vertex 212.7 -4 1
      vertex 226.7 -18 1
    endloop
  endfacet
  facet normal 0 0 1
    outer loop
      vertex 206.55 -34.5 1
      vertex 227.7 -18 1
      vertex 226.7 -18 1
    endloop
  endfacet
  facet normal 0 0 1
    outer loop
      vertex 206.55 -34.5 1
      vertex 226.7 -18 1
      vertex 212.7 -4 1
    endloop
  endfacet
  facet normal 0 0 1
    outer loop
      vertex 227.7 -18 1
      vertex 206.55 -34.5 1
      vertex 227.7 -63 1
    endloop
  endfacet
  facet normal 0 0 1
    outer loop
      vertex 227.7 -63 1
      vertex 206.55 -34.5 1
      vertex 206.55 -63 1
    endloop
  endfacet
  facet normal 1 -0 0
    outer loop
      vertex 1 -18 3
      vertex 1 -4 1
      vertex 1 -4 3
    endloop
  endfacet
  facet normal 1 0 0
    outer loop
      vertex 1 -4 1
      vertex 1 -18 3
      vertex 1 -18 1
    endloop
  endfacet
  facet normal 0 -1 0
    outer loop
      vertex 212.7 -4 1
      vertex 226.7 -4 3
      vertex 212.7 -4 3
    endloop
  endfacet
  facet normal 0 -1 -0
    outer loop
      vertex 226.7 -4 3
      vertex 212.7 -4 1
      vertex 226.7 -4 1
    endloop
  endfacet
  facet normal 0 -1 0
    outer loop
      vertex 1 -4 1
      vertex 15 -4 3
      vertex 1 -4 3
    endloop
  endfacet
  facet normal 0 -1 -0
    outer loop
      vertex 15 -4 3
      vertex 1 -4 1
      vertex 15 -4 1
    endloop
  endfacet
  facet normal 0 -1 0
    outer loop
      vertex 0 -18 1
      vertex 1 -18 3
      vertex 0 -18 3
    endloop
  endfacet
  facet normal 0 -1 -0
    outer loop
      vertex 1 -18 3
      vertex 0 -18 1
      vertex 1 -18 1
    endloop
  endfacet
  facet normal 0 -1 0
    outer loop
      vertex 226.7 -18 1
      vertex 227.7 -18 3
      vertex 226.7 -18 3
    endloop
  endfacet
  facet normal 0 -1 -0
    outer loop
      vertex 227.7 -18 3
      vertex 226.7 -18 1
      vertex 227.7 -18 1
    endloop
  endfacet
  facet normal -1 0 0
    outer loop
      vertex 212.7 -4 1
      vertex 212.7 -3 3
      vertex 212.7 -3 1
    endloop
  endfacet
  facet normal -1 -0 0
    outer loop
      vertex 212.7 -3 3
      vertex 212.7 -4 1
      vertex 212.7 -4 3
    endloop
  endfacet
  facet normal 1 -0 0
    outer loop
      vertex 15 -4 3
      vertex 15 -3 1
      vertex 15 -3 3
    endloop
  endfacet
  facet normal 1 0 0
    outer loop
      vertex 15 -3 1
      vertex 15 -4 3
      vertex 15 -4 1
    endloop
  endfacet
  facet normal -1 0 0
    outer loop
      vertex 206.55 -63 0
      vertex 206.55 -34.5 1
      vertex 206.55 -34.5 0
    endloop
  endfacet
  facet normal -1 -0 0
    outer loop
      vertex 206.55 -34.5 1
      vertex 206.55 -63 0
      vertex 206.55 -63 1
    endloop
  endfacet
  facet normal 1 -0 0
    outer loop
      vertex 31.15 -63 1
      vertex 31.15 -34.5 0
      vertex 31.15 -34.5 1
    endloop
  endfacet
  facet normal 1 0 0
    outer loop
      vertex 31.15 -34.5 0
      vertex 31.15 -63 1
      vertex 31.15 -63 0
    endloop
  endfacet
  facet normal 0 -1 0
    outer loop
      vertex 31.15 -34.5 0
      vertex 206.55 -34.5 1
      vertex 31.15 -34.5 1
    endloop
  endfacet
  facet normal 0 -1 -0
    outer loop
      vertex 206.55 -34.5 1
      vertex 31.15 -34.5 0
      vertex 206.55 -34.5 0
    endloop
  endfacet
endsolid OpenSCAD_Model
